<svg width="100%" height="100%" viewBox="0 0 800 600" fill="none" xmlns="http://www.w3.org/2000/svg">
  <rect width="800" height="600" fill="url(#bgGradient)" />
  <g opacity="0.15">
    <circle cx="200" cy="150" r="80" fill="#34d399" />
    <circle cx="600" cy="450" r="100" fill="#06b6d4" />
    <rect x="350" y="250" width="120" height="120" rx="30" fill="#a78bfa" />
    <rect x="500" y="100" width="80" height="80" rx="20" fill="#f59e42" />
    <rect x="100" y="400" width="100" height="60" rx="15" fill="#ef4444" />
    <circle cx="700" cy="100" r="40" fill="#fbbf24" />
  </g>
  <g opacity="0.5">
    <path d="M100 300 Q400 100 700 300" stroke="#fff" stroke-width="2" fill="none" />
    <path d="M200 500 Q400 350 600 500" stroke="#fff" stroke-width="2" fill="none" />
    <circle cx="400" cy="300" r="8" fill="#fff" />
    <circle cx="400" cy="350" r="6" fill="#fff" />
    <circle cx="400" cy="100" r="6" fill="#fff" />
  </g>
  <g>
    <rect x="370" y="270" width="60" height="30" rx="8" fill="#222" stroke="#34d399" stroke-width="2" />
    <rect x="370" y="320" width="60" height="30" rx="8" fill="#222" stroke="#06b6d4" stroke-width="2" />
    <rect x="370" y="370" width="60" height="30" rx="8" fill="#222" stroke="#a78bfa" stroke-width="2" />
    <rect x="370" y="420" width="60" height="30" rx="8" fill="#222" stroke="#ef4444" stroke-width="2" />
    <rect x="370" y="470" width="60" height="30" rx="8" fill="#222" stroke="#fbbf24" stroke-width="2" />
  </g>
  <defs>
    <linearGradient id="bgGradient" x1="0" y1="0" x2="800" y2="600" gradientUnits="userSpaceOnUse">
      <stop stop-color="#0f172a" />
      <stop offset="1" stop-color="#1e293b" />
    </linearGradient>
  </defs>
</svg>
